<?xml version="1.0" standalone="no"?>
<!DOCTYPE svg PUBLIC "-//W3C//DTD SVG 20010904//EN"
 "http://www.w3.org/TR/2001/REC-SVG-20010904/DTD/svg10.dtd">
<svg version="1.0" xmlns="http://www.w3.org/2000/svg"
 width="2100.000000pt" height="1500.000000pt" viewBox="0 0 2100.000000 1500.000000"
 preserveAspectRatio="xMidYMid meet">

<g transform="translate(0.000000,1500.000000) scale(0.100000,-0.100000)"
fill="#000000" stroke="none">
<path d="M10485 13774 c-11 -2 -45 -9 -75 -15 -87 -16 -149 -38 -235 -81 -95
-48 -100 -52 -181 -147 -58 -67 -67 -85 -100 -185 -19 -61 -41 -117 -48 -124
-6 -7 -69 -28 -139 -47 -70 -19 -167 -51 -217 -70 -49 -19 -93 -35 -98 -35
-16 0 -258 -127 -353 -185 -192 -117 -484 -375 -630 -557 -121 -150 -130 -158
-182 -158 -97 0 -299 -83 -458 -187 -78 -51 -83 -55 -188 -144 -131 -111 -431
-440 -521 -573 -8 -12 -60 -86 -115 -164 -113 -162 -106 -150 -201 -303 -127
-206 -199 -332 -283 -499 -46 -91 -87 -169 -91 -175 -22 -30 -127 -287 -206
-504 -72 -198 -104 -370 -111 -596 -6 -202 11 -362 58 -530 43 -151 70 -226
204 -560 186 -465 225 -616 245 -940 5 -88 16 -270 25 -405 8 -135 17 -355 19
-490 6 -296 22 -527 43 -635 8 -44 19 -114 25 -155 20 -156 122 -425 217 -570
92 -141 261 -294 408 -368 23 -12 44 -30 47 -39 2 -10 4 -67 4 -128 -1 -86 3
-128 21 -190 43 -156 66 -196 173 -307 56 -58 82 -75 199 -132 88 -43 165 -72
224 -86 50 -11 127 -30 172 -42 62 -15 102 -20 165 -16 74 4 92 9 157 44 86
46 127 84 193 182 l49 72 112 -5 c62 -4 146 -12 187 -20 140 -25 294 -38 388
-31 93 6 93 6 121 -22 23 -23 30 -40 36 -93 3 -35 15 -95 25 -134 26 -103 62
-286 105 -535 9 -52 23 -129 32 -170 8 -41 21 -109 28 -150 7 -41 18 -93 24
-115 6 -22 11 -61 11 -87 0 -45 -3 -49 -61 -100 -78 -67 -104 -114 -120 -211
-26 -165 11 -282 111 -355 113 -82 232 -131 440 -182 144 -35 640 -45 815 -17
103 17 279 75 327 108 14 11 31 19 36 19 18 0 112 111 135 159 19 39 22 62 22
156 -1 98 -4 116 -27 165 -15 30 -52 83 -82 118 -31 35 -59 75 -62 89 -4 14
-1 87 5 162 7 75 16 190 21 256 5 66 16 151 24 190 9 40 18 154 21 270 7 226
24 332 58 362 40 36 232 77 427 93 69 5 156 19 194 30 98 28 273 47 288 32 9
-9 9 -31 -1 -95 -25 -165 -25 -199 4 -232 23 -28 29 -30 92 -29 43 1 85 9 114
22 25 11 81 28 125 37 43 10 91 24 106 31 15 8 76 26 135 40 60 14 172 48 251
74 78 27 188 59 245 71 134 29 333 94 378 125 46 31 59 61 59 130 0 58 -37
244 -71 354 -31 104 -28 123 31 167 27 21 82 59 122 85 150 97 343 296 409
422 80 153 110 220 149 336 84 252 100 451 100 1260 l0 555 30 160 c43 222 74
347 125 507 44 137 202 486 275 609 22 37 56 111 77 165 l38 99 -1 300 0 300
-36 150 c-20 83 -46 179 -58 215 -62 181 -127 355 -167 445 -65 148 -257 524
-287 565 -6 8 -20 31 -30 50 -11 19 -55 92 -100 162 -45 71 -99 156 -120 190
-47 77 -274 380 -353 474 -139 164 -387 416 -483 489 -36 27 -67 52 -70 55
-12 15 -191 112 -258 140 -56 24 -94 32 -160 36 -126 8 -125 7 -170 76 -151
234 -439 532 -632 656 -30 19 -86 55 -125 80 -38 25 -140 76 -225 114 -85 37
-164 73 -174 79 -11 6 -49 20 -85 30 -36 10 -99 31 -138 45 l-73 27 -50 95
c-90 167 -157 236 -295 305 -157 77 -243 97 -413 96 -70 -1 -136 -3 -147 -5z
m292 -135 c43 -6 105 -21 139 -35 33 -13 65 -24 70 -24 17 0 114 -72 114 -85
0 -7 -19 -24 -42 -38 -53 -31 -103 -83 -117 -119 -15 -39 11 -37 57 3 43 38
138 82 161 74 21 -6 71 -111 71 -147 0 -34 -12 -36 -29 -5 -7 12 -24 30 -38
41 -24 17 -27 18 -59 2 -36 -16 -100 -62 -186 -133 -51 -43 -81 -53 -93 -32
-4 5 -27 20 -53 32 -35 17 -48 30 -57 57 l-12 35 -13 -27 c-13 -28 -43 -37
-55 -18 -3 5 -8 33 -10 61 -4 63 -20 84 -35 45 -5 -15 -10 -42 -10 -61 0 -18
-3 -40 -6 -49 -9 -23 -31 -20 -39 5 -8 26 -28 20 -35 -11 -5 -20 -54 -64 -111
-99 -12 -7 -37 10 -115 78 -112 99 -131 111 -171 111 -34 0 -89 -52 -96 -90
-3 -17 -5 -12 -5 15 -2 37 16 105 39 147 21 40 109 11 199 -66 60 -52 75 -45
44 19 -16 35 -111 125 -131 125 -6 0 -17 7 -24 16 -12 14 -9 20 21 46 126 106
391 160 627 127z m-762 -521 c26 -121 139 -161 248 -87 27 18 45 25 52 18 6
-6 6 -14 0 -24 -6 -8 -31 -45 -56 -82 -26 -37 -64 -84 -85 -105 -69 -65 -97
-112 -78 -131 11 -11 168 135 195 181 45 78 131 165 194 196 61 30 148 43 208
32 77 -14 188 -123 231 -228 11 -25 36 -49 88 -84 40 -27 78 -56 85 -64 8 -11
15 -12 23 -4 13 13 -48 100 -93 129 -17 11 -34 27 -38 35 -5 8 -22 39 -39 69
-28 48 -30 56 -16 69 13 14 19 12 55 -11 44 -29 96 -35 149 -16 34 12 53 36
71 92 19 58 37 47 45 -28 4 -38 25 -116 51 -185 114 -310 98 -458 -79 -739
-35 -54 -219 -199 -335 -262 -20 -10 -43 -24 -51 -29 -66 -44 -245 -140 -261
-140 -22 0 -67 31 -379 259 -218 159 -269 207 -315 300 -44 88 -59 166 -51
270 7 99 55 251 99 318 32 47 45 102 47 188 1 90 22 127 35 63z m-489 -396
c29 -20 114 -294 167 -542 49 -225 93 -508 108 -684 5 -71 12 -132 14 -136 19
-31 36 -1073 17 -1092 -12 -12 -221 57 -243 80 -14 15 -14 36 -7 172 15 258 3
701 -26 950 -42 359 -120 726 -210 991 -20 57 -36 114 -36 126 0 26 47 64 134
110 69 36 67 35 82 25z m2238 -37 c39 -19 84 -46 100 -59 33 -27 32 -51 -2
-146 -31 -84 -91 -295 -113 -395 -38 -178 -60 -291 -70 -365 -5 -41 -14 -95
-19 -120 -38 -178 -63 -742 -45 -1040 13 -221 11 -233 -50 -244 -21 -4 -51
-13 -69 -21 -70 -30 -130 -44 -138 -32 -11 17 -1 772 12 897 5 58 15 166 20
240 9 117 24 237 69 545 6 39 17 99 25 135 8 36 22 99 31 140 22 99 50 201 92
335 40 123 58 165 75 165 6 0 43 -16 82 -35z m537 -482 c0 -5 2 -18 3 -29 2
-19 0 -20 -16 -11 -18 12 -23 28 -11 40 9 9 23 9 24 0z m-3421 -53 c0 -5 -4
-10 -10 -10 -5 0 -10 5 -10 10 0 6 5 10 10 10 6 0 10 -4 10 -10z m100 -56 c0
-13 -4 -24 -10 -24 -5 0 -10 14 -10 31 0 17 4 28 10 24 6 -3 10 -17 10 -31z
m3373 22 c7 -16 -1 -26 -20 -26 -7 0 -13 9 -13 20 0 23 25 27 33 6z m-33 -78
c0 -19 -18 -43 -25 -36 -9 9 4 48 16 48 5 0 9 -6 9 -12z m-3400 -38 c0 -5 -4
-10 -10 -10 -5 0 -10 5 -10 10 0 6 5 10 10 10 6 0 10 -4 10 -10z m2186 -147
c-19 -37 -69 -117 -110 -178 -41 -60 -90 -131 -107 -157 -35 -52 -54 -60 -64
-28 -8 26 -46 26 -71 -1 -42 -46 -164 -130 -182 -124 -15 5 -51 54 -81 113
-16 30 -49 29 -61 -3 -13 -33 -23 -32 -51 9 -13 18 -58 78 -100 133 -73 96
-189 281 -189 302 0 22 23 10 94 -49 39 -32 137 -102 216 -155 155 -102 182
-111 227 -75 14 11 31 20 38 20 7 0 23 8 36 18 13 11 58 36 99 58 77 39 155
87 270 161 36 24 66 39 68 34 2 -5 -13 -40 -32 -78z m1174 68 c0 -6 -4 -12 -9
-16 -5 -3 -12 -19 -16 -35 -7 -33 -25 -41 -25 -11 0 33 19 71 35 71 8 0 15 -4
15 -9z m-3325 -22 c6 -19 0 -38 -9 -28 -10 12 -16 49 -7 49 5 0 13 -9 16 -21z
m-437 -86 c29 -42 81 -139 98 -186 41 -112 84 -249 99 -317 9 -41 20 -91 26
-110 9 -34 51 -387 53 -445 2 -50 -26 -41 -77 25 -59 75 -87 128 -136 256 -78
203 -229 478 -341 620 -58 74 -63 94 -20 94 53 0 201 46 243 75 29 20 33 19
55 -12z m4243 -8 c65 -29 161 -55 206 -55 51 0 50 -22 -4 -92 -107 -140 -253
-397 -323 -568 -12 -30 -29 -69 -36 -87 -8 -17 -14 -35 -14 -41 0 -15 -39 -94
-63 -127 -12 -17 -37 -51 -56 -78 -32 -44 -54 -57 -64 -39 -2 4 0 43 4 87 4
44 11 112 14 150 22 253 110 581 203 760 18 33 37 72 44 88 15 33 22 33 89 2z
m-560 -88 c-8 -8 -11 -1 -11 24 0 46 14 60 18 19 2 -18 -1 -37 -7 -43z m-3172
-79 c1 -16 -3 -28 -9 -28 -6 0 -10 24 -9 53 1 41 3 47 9 27 4 -14 8 -37 9 -52z
m1121 -38 c0 -5 -2 -10 -4 -10 -3 0 -8 5 -11 10 -3 6 -1 10 4 10 6 0 11 -4 11
-10z m2017 -47 c-3 -10 -5 -2 -5 17 0 19 2 27 5 18 2 -10 2 -26 0 -35z m-3108
-45 c-1 -52 -3 -66 -9 -48 -12 36 -12 120 0 120 6 0 10 -30 9 -72z m1108 -155
c1 -116 -2 -177 -7 -160 -5 16 -9 90 -10 165 -2 176 -2 182 8 182 5 0 9 -84 9
-187z m893 162 c0 -8 -9 -23 -21 -34 l-20 -19 22 -21 c12 -11 20 -23 17 -27
-4 -3 -16 4 -27 15 -12 12 -25 21 -31 21 -15 0 -12 8 18 46 29 37 42 43 42 19z
m2370 -71 c0 -20 -5 -18 -35 11 -14 14 -25 36 -25 48 0 20 3 19 30 -11 17 -18
30 -40 30 -48z m-5590 31 c0 -8 -11 -17 -25 -21 -13 -3 -29 -12 -36 -20 -6 -8
-15 -11 -20 -9 -11 8 0 35 15 35 6 0 19 9 29 20 18 22 37 19 37 -5z m2425 -34
c-10 -16 -25 -3 -25 22 0 20 1 20 16 5 9 -9 13 -21 9 -27z m1874 -8 c-1 -16
-5 -39 -9 -53 -6 -20 -8 -14 -9 28 -1 28 3 52 9 52 6 0 10 -12 9 -27z m-1168
-16 c-13 -13 -26 -3 -16 12 3 6 11 8 17 5 6 -4 6 -10 -1 -17z m-661 -22 c15
-28 9 -41 -15 -32 -15 7 -22 57 -7 57 5 0 15 -11 22 -25z m-1211 -120 c1 -42
-2 -56 -9 -45 -5 8 -9 44 -9 80 1 84 17 51 18 -35z m1943 80 c0 -5 -5 -11 -11
-13 -6 -2 -11 4 -11 13 0 9 5 15 11 13 6 -2 11 -8 11 -13z m-678 -42 c36 -38
44 -53 27 -53 -5 0 -23 20 -40 45 -17 25 -29 45 -26 45 2 0 20 -17 39 -37z
m496 2 c0 -8 -7 -15 -15 -15 -16 0 -20 12 -8 23 11 12 23 8 23 -8z m110 5 c0
-5 -4 -10 -10 -10 -5 0 -10 5 -10 10 0 6 5 10 10 10 6 0 10 -4 10 -10z m-254
-67 c-11 -11 -19 6 -11 24 8 17 8 17 12 0 3 -10 2 -21 -1 -24z m-196 6 c0 -11
-4 -17 -10 -14 -5 3 -10 13 -10 21 0 8 5 14 10 14 6 0 10 -9 10 -21z m38 -48
c4 -28 -13 -20 -21 9 -3 14 -1 20 6 17 7 -2 14 -14 15 -26z m132 15 c0 -18
-26 -40 -34 -27 -9 14 4 41 20 41 8 0 14 -6 14 -14z m-231 -10 c8 -10 8 -16
-2 -24 -15 -13 -37 2 -37 25 0 17 25 17 39 -1z m574 -93 c-8 -91 -13 -92 -13
-5 0 40 4 72 10 72 5 0 7 -27 3 -67z m-418 37 c-3 -5 -10 -10 -16 -10 -5 0 -9
5 -9 10 0 6 7 10 16 10 8 0 12 -4 9 -10z m115 -36 c0 -8 -4 -14 -10 -14 -5 0
-10 9 -10 21 0 11 5 17 10 14 6 -3 10 -13 10 -21z m-1603 -56 c-2 -13 -4 -3
-4 22 0 25 2 35 4 23 2 -13 2 -33 0 -45z m1073 -99 c5 -74 14 -147 19 -162 6
-16 11 -38 11 -50 0 -12 7 -35 15 -51 19 -36 14 -43 -10 -16 -20 22 -29 67
-44 225 -6 55 -13 125 -16 155 -4 39 -3 52 5 44 6 -6 15 -71 20 -145z m538 50
c-2 -6 -8 -10 -13 -10 -5 0 -11 4 -13 10 -2 6 4 11 13 11 9 0 15 -5 13 -11z
m296 -62 l-7 -42 -9 30 c-4 17 -5 43 -2 59 10 48 27 4 18 -47z m-1901 -40 l-7
-62 -7 60 c-4 33 -5 71 -2 84 l6 25 8 -22 c5 -13 5 -51 2 -85z m2954 21 c-2
-13 -4 -3 -4 22 0 25 2 35 4 23 2 -13 2 -33 0 -45z m-3915 -20 c21 -16 48
-120 48 -182 l0 -45 -592 -3 c-326 -2 -598 1 -605 5 -7 5 -9 18 -4 35 9 29 65
143 89 179 l14 23 517 0 c398 0 521 -3 533 -12z m5899 2 c31 -17 127 -216 111
-232 -4 -4 -278 -7 -608 -6 l-599 3 3 50 c2 28 11 79 21 115 l18 65 69 6 c130
10 964 10 985 -1z m-3044 -67 c-3 -10 -5 -2 -5 17 0 19 2 27 5 18 2 -10 2 -26
0 -35z m43 -179 c0 -8 -4 -12 -10 -9 -5 3 -10 10 -10 16 0 5 5 9 10 9 6 0 10
-7 10 -16z m-1872 -10 c6 -2 12 -8 12 -14 0 -19 -84 -6 -88 13 -3 14 3 16 30
11 18 -3 39 -7 46 -10z m1082 -48 c-13 -13 -35 7 -25 24 5 8 11 8 21 -1 10 -8
12 -15 4 -23z m826 9 c8 -21 -6 -41 -17 -24 -12 19 -11 39 1 39 6 0 13 -7 16
-15z m-946 -34 c0 -15 4 -41 10 -57 5 -16 14 -63 19 -104 15 -114 31 -177 53
-197 25 -23 123 -53 173 -53 22 0 47 -5 55 -11 25 -17 -138 0 -200 22 -75 26
-85 38 -84 106 1 39 -3 61 -13 68 -9 6 -16 33 -18 68 -2 32 -11 79 -21 107
-14 40 -15 51 -5 64 20 24 31 19 31 -13z m340 9 c0 -5 -14 -10 -31 -10 -17 0
-28 4 -24 10 3 6 17 10 31 10 13 0 24 -4 24 -10z m-128 -8 c-12 -8 -72 -4 -72
4 0 2 19 4 43 4 25 0 37 -4 29 -8z m558 -2 c-20 -13 -63 -13 -55 0 3 6 21 10
38 10 24 0 28 -3 17 -10z m-375 -30 c4 -6 -7 -10 -24 -10 -17 0 -31 5 -31 10
0 6 11 10 24 10 14 0 28 -4 31 -10z m163 -7 c-15 -2 -42 -2 -60 0 -18 2 -6 4
27 4 33 0 48 -2 33 -4z m348 -59 c-4 -12 -9 -12 -25 -2 -18 11 -18 12 3 29 18
15 22 15 24 3 2 -8 1 -22 -2 -30z m1579 7 c3 -5 1 -12 -4 -16 -14 -8 -62 5
-55 16 7 12 51 12 59 0z m-4031 -20 c15 -16 15 -20 1 -31 -12 -10 -16 -8 -25
15 -5 14 -10 28 -10 31 0 10 18 2 34 -15z m3946 -16 c0 -9 -8 -19 -17 -22 -10
-4 -20 -10 -23 -13 -9 -13 -50 -22 -50 -11 0 5 10 13 23 17 12 4 28 15 35 25
16 23 32 25 32 4z m-1615 -5 c-3 -5 -17 -10 -31 -10 -13 0 -24 5 -24 10 0 6
14 10 31 10 17 0 28 -4 24 -10z m125 -24 c0 -8 -4 -18 -10 -21 -5 -3 -10 3
-10 14 0 12 5 21 10 21 6 0 10 -6 10 -14z m-2365 -6 c3 -5 -1 -10 -10 -10 -9
0 -13 5 -10 10 3 6 8 10 10 10 2 0 7 -4 10 -10z m2097 -23 c-2 -18 2 -27 12
-27 20 0 28 -26 12 -39 -11 -9 -18 -2 -35 34 -26 55 -26 68 -3 63 12 -3 16
-12 14 -31z m1788 -2 c0 -10 -10 -15 -26 -15 -22 0 -25 2 -14 15 7 8 19 15 26
15 8 0 14 -7 14 -15z m-3830 -5 c8 -5 11 -12 8 -16 -10 -9 -38 3 -38 16 0 12
10 13 30 0z m3700 -10 c0 -6 -7 -13 -15 -16 -20 -8 -48 3 -40 16 8 13 55 13
55 0z m-3770 -26 c0 -10 -7 -14 -22 -12 -32 5 -35 28 -4 28 17 0 26 -5 26 -16z
m2361 -17 c-6 -6 -11 -37 -11 -68 0 -64 -6 -73 -46 -63 -21 5 -23 8 -11 15 9
5 21 26 27 47 19 61 43 108 48 94 2 -8 -1 -19 -7 -25z m-2223 5 c3 -9 -3 -13
-19 -10 -12 1 -24 9 -27 16 -3 9 3 13 19 10 12 -1 24 -9 27 -16z m3552 -2 c0
-5 -4 -10 -10 -10 -5 0 -10 5 -10 10 0 6 5 10 10 10 6 0 10 -4 10 -10z m-3639
-26 c12 -14 11 -16 -5 -13 -11 2 -21 10 -24 17 -5 17 13 15 29 -4z m164 -14
c4 -6 -5 -10 -19 -10 -14 0 -26 5 -26 10 0 6 9 10 19 10 11 0 23 -4 26 -10z
m1932 -50 c-1 -22 -5 -40 -8 -40 -8 0 -18 72 -12 83 10 18 22 -7 20 -43z
m1578 30 c-3 -5 -13 -10 -21 -10 -8 0 -14 5 -14 10 0 6 9 10 21 10 11 0 17 -4
14 -10z m-5485 -21 c0 -11 -27 -12 -34 0 -3 4 -3 11 0 14 8 8 34 -3 34 -14z
m2005 11 c3 -5 1 -10 -4 -10 -6 0 -11 5 -11 10 0 6 2 10 4 10 3 0 8 -4 11 -10z
m3331 -5 c-10 -8 -23 -12 -28 -9 -14 9 2 24 25 24 21 -1 21 -1 3 -15z m1068 6
c14 -5 16 -10 7 -15 -16 -10 -63 2 -56 14 7 12 22 12 49 1z m-6514 -16 c0 -9
-11 -20 -24 -24 -15 -6 -25 -20 -29 -40 -5 -22 -12 -31 -27 -31 -31 0 -24 27
18 69 40 41 62 50 62 26z m218 8 c-10 -2 -28 -2 -40 0 -13 2 -5 4 17 4 22 1
32 -1 23 -4z m832 0 c0 -7 -418 -7 -665 0 -55 2 72 4 283 5 210 1 382 -1 382
-5z m5783 0 c-46 -2 -120 -2 -165 0 -46 1 -9 3 82 3 91 0 128 -2 83 -3z m175
0 c-15 -2 -42 -2 -60 0 -18 2 -6 4 27 4 33 0 48 -2 33 -4z m115 0 c-13 -2 -35
-2 -50 0 -16 2 -5 4 22 4 28 0 40 -2 28 -4z m90 0 c-7 -2 -21 -2 -30 0 -10 3
-4 5 12 5 17 0 24 -2 18 -5z m-1813 -28 c0 -10 -11 -15 -35 -15 -40 0 -45 7
-12 20 33 13 47 12 47 -5z m2208 -3 c2 -7 -3 -12 -12 -12 -9 0 -16 7 -16 16 0
17 22 14 28 -4z m-5403 -2 c8 -13 -25 -13 -45 0 -12 8 -9 10 12 10 15 0 30 -4
33 -10z m95 -40 c0 -13 -20 -13 -40 0 -12 8 -9 10 13 10 15 0 27 -4 27 -10z
m1769 1 c21 -13 -3 -22 -40 -14 -33 7 -33 7 -9 14 35 10 33 10 49 0z m1236 -1
c-3 -5 -15 -10 -26 -10 -10 0 -19 5 -19 10 0 6 12 10 26 10 14 0 23 -4 19 -10z
m2335 -3 c0 -8 9 -22 20 -32 25 -23 16 -38 -14 -24 -16 8 -23 20 -24 40 0 16
4 29 9 29 5 0 9 -6 9 -13z m-7575 -17 c0 -8 -7 -16 -15 -17 -22 -4 -44 13 -35
26 10 17 50 9 50 -9z m3913 -4 c-21 -16 -205 -27 -263 -16 -45 9 -52 8 115 16
52 3 96 7 99 10 2 2 18 4 35 4 28 -1 29 -2 14 -14z m1235 -11 c-3 -13 -53 -20
-53 -7 0 15 13 23 35 20 11 -2 19 -7 18 -13z m1402 -15 c3 -5 2 -10 -4 -10 -5
0 -13 5 -16 10 -3 6 -2 10 4 10 5 0 13 -4 16 -10z m-1468 -26 c-3 -3 -16 -4
-29 -2 l-23 5 25 10 c23 10 41 1 27 -13z m-2597 -34 c0 -13 -30 -13 -50 0 -11
7 -7 10 18 10 17 0 32 -4 32 -10z m2505 0 c-28 -12 -67 -12 -60 0 3 6 23 10
43 9 30 0 33 -2 17 -9z m-2618 -16 c-3 -3 -12 -4 -19 -1 -8 3 -5 6 6 6 11 1
17 -2 13 -5z m2546 -25 c-5 -5 -22 -7 -37 -3 -29 7 -25 19 9 26 25 6 43 -8 28
-23z m167 21 c0 -5 -9 -10 -20 -10 -11 0 -20 5 -20 10 0 6 9 10 20 10 11 0 20
-4 20 -10z m-2492 -17 c-10 -2 -26 -2 -35 0 -10 3 -2 5 17 5 19 0 27 -2 18 -5z
m-1005 -23 c33 -26 66 -123 50 -148 -9 -15 -26 -17 -124 -14 -112 3 -115 3
-161 -27 -29 -18 -56 -47 -70 -73 -21 -38 -23 -56 -23 -168 1 -105 4 -134 23
-180 41 -103 122 -172 122 -104 0 31 34 90 60 104 28 15 61 12 100 -9 19 -11
45 -24 58 -30 29 -14 28 -34 -6 -84 -52 -78 -98 -201 -108 -286 -3 -33 -11
-61 -17 -61 -11 0 -72 53 -155 133 -121 118 -197 257 -227 414 -19 97 -19 158
-1 250 14 74 34 111 95 176 91 98 316 160 384 107z m1142 -10 c4 -6 -8 -10
-29 -10 -19 0 -38 5 -41 10 -4 6 8 10 29 10 19 0 38 -4 41 -10z m2070 0 c-3
-5 -24 -10 -46 -10 -24 0 -38 4 -34 10 3 6 24 10 46 10 24 0 38 -4 34 -10z
m1252 -25 c195 -66 283 -203 268 -421 -14 -205 -83 -358 -228 -505 -62 -64
-150 -141 -166 -147 -5 -2 -12 25 -16 60 -12 105 -84 279 -129 318 -28 22 -18
37 50 75 51 27 73 35 95 30 34 -8 78 -57 86 -97 13 -64 59 -43 103 45 17 34
34 87 39 117 13 84 6 221 -14 261 -50 98 -127 131 -263 112 -41 -6 -81 -9 -89
-6 -29 11 -5 115 39 171 18 22 141 15 225 -13z m-3197 -15 c0 -5 -7 -10 -16
-10 -8 0 -12 5 -9 10 3 6 10 10 16 10 5 0 9 -4 9 -10z m180 -40 c0 -5 -15 -10
-34 -10 -19 0 -38 5 -41 10 -4 6 10 10 34 10 23 0 41 -4 41 -10z m1505 1 c30
-7 30 -7 6 -15 -14 -5 -26 -4 -30 2 -3 5 -15 12 -26 15 l-20 5 20 0 c11 0 34
-3 50 -7z m-1325 -40 c-28 -16 -100 -17 -100 -1 0 6 26 10 58 10 37 -1 52 -4
42 -9z m190 -30 c0 -9 -57 -7 -67 3 -4 3 10 6 30 6 21 0 37 -4 37 -9z m188 2
c-10 -2 -26 -2 -35 0 -10 3 -2 5 17 5 19 0 27 -2 18 -5z m-2709 -252 c11 -7
12 -25 7 -78 -6 -57 -3 -80 18 -143 13 -41 23 -76 22 -78 -5 -4 -1508 -3
-1513 2 -13 13 67 222 106 274 l24 32 661 0 c364 -1 668 -5 675 -9z m7005 -12
c27 -21 64 -92 86 -164 7 -22 18 -56 25 -77 9 -26 10 -39 2 -47 -8 -8 -233
-11 -754 -11 -617 0 -745 2 -749 14 -3 7 5 29 16 49 21 36 24 68 17 207 l-2
35 655 5 c360 3 660 6 666 8 6 1 23 -7 38 -19z m-4114 -187 c60 -34 143 -118
170 -172 18 -35 50 -135 50 -157 0 -3 -19 -2 -42 1 -151 21 -307 24 -422 10
-85 -10 -122 -12 -130 -4 -17 17 29 136 75 198 25 33 71 73 122 107 91 61 100
62 177 17z m-1743 -409 c141 -110 231 -149 466 -199 64 -14 87 -15 128 -6 93
22 92 15 -15 -96 -161 -167 -249 -283 -272 -359 -9 -28 -13 -108 -14 -235 0
-106 -1 -250 -1 -320 -1 -143 -7 -152 -52 -87 -98 138 -439 474 -572 563 -55
38 -67 71 -73 212 -5 147 15 235 85 363 45 82 183 241 210 241 7 0 56 -34 110
-77z m3434 0 c130 -136 189 -253 213 -424 23 -157 -4 -305 -61 -334 -11 -6
-26 -17 -35 -25 -8 -8 -53 -49 -99 -90 -240 -215 -320 -295 -415 -412 -30 -38
-59 -68 -63 -68 -5 0 -8 148 -7 328 l1 329 -27 39 c-16 22 -28 43 -28 47 0 24
-225 307 -282 355 -42 35 -36 46 22 38 28 -4 67 -2 88 3 20 5 75 17 122 26 95
18 130 30 241 85 77 38 203 131 213 156 12 32 53 14 117 -53z m-1481 -61 c47
-11 115 -30 150 -42 76 -27 258 -120 301 -152 101 -78 181 -148 232 -202 67
-72 172 -212 187 -250 13 -35 13 -276 0 -276 -5 0 -21 23 -36 51 -98 194 -295
387 -500 491 -194 98 -366 138 -599 138 -309 0 -597 -87 -833 -251 -75 -51
-209 -169 -262 -231 -25 -28 -59 -68 -76 -87 -17 -20 -43 -57 -58 -83 -48 -83
-56 -68 -56 101 l0 148 49 65 c156 206 393 387 666 508 67 30 204 66 355 94
14 2 108 3 210 1 136 -3 207 -9 270 -23z m-4459 -45 c-1 -4 -1 -19 -1 -33 0
-14 -4 -23 -10 -19 -14 8 -13 68 1 63 6 -2 10 -7 10 -11z m8414 -19 c-6 -70
-7 -74 -14 -43 -8 34 -3 75 9 75 4 0 6 -15 5 -32z m-1425 -8 c0 -5 -6 -10 -14
-10 -8 0 -18 5 -21 10 -3 6 3 10 14 10 12 0 21 -4 21 -10z m-5487 -20 c-3 -11
-7 -20 -9 -20 -2 0 -4 9 -4 20 0 11 4 20 9 20 5 0 7 -9 4 -20z m-1495 -77 c-4
-22 -22 -20 -26 1 -2 10 3 16 13 16 10 0 15 -7 13 -17z m1572 -2 c0 -9 -24
-21 -41 -21 -5 0 -9 7 -9 15 0 9 9 15 25 15 14 0 25 -4 25 -9z m2715 -272
c115 -15 206 -43 355 -111 132 -60 311 -207 404 -332 226 -303 301 -651 216
-1009 -105 -447 -489 -805 -946 -883 -130 -23 -324 -22 -429 0 -260 56 -487
185 -649 366 -57 63 -146 183 -146 195 0 4 -8 19 -18 33 -34 50 -85 174 -108
264 -72 277 -45 565 76 813 70 143 122 218 225 321 131 132 237 204 405 273
114 46 182 61 395 84 37 5 115 -1 220 -14z m2556 -149 c102 -19 219 -120 219
-189 0 -10 11 -35 25 -55 14 -20 25 -43 25 -51 0 -8 -44 -37 -97 -64 -54 -28
-122 -66 -151 -86 -30 -19 -56 -35 -58 -35 -10 0 -187 -122 -296 -204 -346
-260 -497 -422 -650 -698 -115 -205 -202 -442 -233 -630 -3 -21 -10 -40 -15
-43 -10 -6 -331 272 -338 292 -9 31 30 22 85 -19 32 -24 62 -46 68 -50 5 -4
32 -26 59 -48 26 -23 56 -40 65 -38 10 2 22 24 31 58 20 74 46 140 88 230 19
41 43 93 53 115 11 22 35 65 54 95 19 30 34 62 35 71 0 8 -25 37 -56 63 -73
63 -134 142 -134 172 0 13 15 41 33 61 19 21 41 49 50 63 10 14 72 83 140 153
219 229 511 471 677 561 102 54 222 89 288 81 56 -6 119 -32 141 -59 35 -42
72 4 50 61 -38 102 -107 145 -232 146 -222 1 -456 -125 -797 -429 -143 -127
-352 -341 -424 -432 -49 -62 -68 -72 -74 -38 -11 56 265 368 485 547 236 193
515 361 655 395 66 15 159 17 229 4z m-5110 -26 c142 -42 397 -193 609 -363
223 -179 520 -504 520 -570 0 -40 -19 -29 -86 47 -364 413 -740 719 -990 806
-40 14 -112 31 -160 37 -76 10 -97 9 -144 -5 -90 -26 -150 -100 -150 -182 0
-42 22 -45 61 -8 54 52 193 62 305 21 174 -63 425 -250 694 -516 149 -148 293
-307 324 -358 16 -27 -56 -124 -146 -196 -26 -21 -48 -45 -48 -53 0 -7 15 -37
34 -66 76 -120 177 -350 199 -455 13 -61 29 -67 74 -30 15 13 68 54 116 91 72
55 91 65 102 56 8 -7 15 -15 15 -19 0 -4 -35 -36 -77 -71 -42 -36 -114 -98
-160 -137 -45 -40 -86 -73 -92 -73 -15 0 -19 9 -41 118 -12 56 -38 150 -59
209 -36 103 -105 266 -123 289 -4 6 -21 36 -38 68 -72 134 -188 283 -321 411
-235 225 -592 481 -856 612 -40 20 -73 40 -73 45 0 6 9 23 20 39 12 15 28 52
36 81 23 76 77 128 179 169 54 23 204 24 276 3z m-668 -45 c74 -2 97 -6 97
-16 0 -28 -40 -91 -69 -109 -16 -11 -57 -45 -90 -76 l-61 -58 -318 0 c-361 0
-330 -7 -396 95 -22 33 -50 76 -63 96 -21 33 -29 60 -19 70 4 4 744 3 919 -2z
m7163 -16 c-11 -27 -136 -220 -151 -233 -9 -8 -111 -12 -334 -12 l-320 -1 -63
58 c-35 31 -80 69 -100 82 -21 14 -38 32 -38 39 0 8 -5 23 -12 33 -6 10 -8 25
-5 34 5 14 65 15 518 17 483 1 511 0 505 -17z m-973 -408 c-6 -76 -127 -381
-200 -507 -18 -31 -33 -59 -33 -63 0 -3 -8 -18 -19 -33 -10 -15 -32 -49 -49
-77 -53 -85 -121 -177 -215 -290 -52 -62 -286 -297 -347 -347 -53 -44 -241
-186 -275 -208 -163 -103 -299 -174 -318 -167 -37 14 -1 308 46 381 8 11 36
32 63 45 182 90 412 255 544 390 144 149 320 389 370 506 10 24 30 67 43 97
42 93 54 122 61 155 10 43 54 69 185 109 120 37 147 39 144 9z m-6045 -25
c167 -43 168 -43 227 -191 88 -217 162 -341 306 -517 181 -221 411 -410 659
-541 52 -27 79 -49 95 -75 29 -49 57 -202 53 -291 -4 -90 -15 -92 -128 -26
-202 117 -298 181 -358 239 -7 6 -18 12 -23 12 -6 0 -20 10 -32 23 -12 12 -70
64 -128 115 -266 231 -486 518 -642 839 -74 153 -103 225 -131 323 -7 25 -19
56 -25 69 -12 22 -9 51 6 51 4 0 59 -14 121 -30z m6109 -192 c-6 -41 -58 -206
-88 -280 -131 -315 -349 -607 -619 -827 -109 -89 -234 -181 -246 -181 -4 0
-15 -6 -23 -14 -23 -20 -151 -86 -168 -86 -8 0 -11 5 -8 10 3 6 13 10 22 10 8
0 24 11 35 25 11 14 24 25 30 25 6 0 76 53 157 117 364 291 611 609 814 1048
15 33 27 65 27 70 0 6 9 28 19 50 11 22 22 48 25 58 3 9 11 17 17 17 8 0 10
-13 6 -42z m-6267 9 c0 -12 7 -32 15 -44 8 -11 22 -42 31 -69 31 -93 176 -374
251 -487 87 -129 195 -266 302 -380 92 -97 316 -289 439 -376 98 -69 115 -100
29 -51 -29 17 -62 34 -74 40 -41 17 -244 164 -326 234 -276 238 -483 524 -597
826 -18 47 -36 94 -41 105 -32 70 -59 225 -40 225 6 0 11 -10 11 -23z m-563
-43 c7 -19 -13 -34 -44 -34 -27 0 -29 12 -7 34 20 21 43 20 51 0z m225 -36
c-13 -13 -24 5 -16 27 7 16 8 16 17 0 6 -11 6 -20 -1 -27z m7224 21 c10 -17
-13 -36 -27 -22 -12 12 -4 33 11 33 5 0 12 -5 16 -11z m-7496 -104 c0 -8 -4
-15 -10 -15 -5 0 -10 7 -10 15 0 8 5 15 10 15 6 0 10 -7 10 -15z m7490 -26 c0
-10 -4 -19 -10 -19 -5 0 -10 12 -10 26 0 14 4 23 10 19 6 -3 10 -15 10 -26z
m-7384 -501 c3 -5 -3 -12 -15 -15 -12 -3 -21 -10 -22 -17 0 -6 0 -292 1 -634
1 -433 -2 -622 -10 -617 -11 6 -15 1286 -4 1297 7 8 43 -2 50 -14z m7037 2
c55 0 97 -3 93 -7 -9 -9 -254 -14 -281 -5 -18 5 -18 6 5 13 14 4 38 6 54 3 16
-2 74 -4 129 -4z m176 1 c21 -13 -5 -24 -37 -16 -25 7 -25 8 -7 15 26 11 28
11 44 1z m121 -5 c0 -20 -28 -28 -52 -15 -17 9 -18 13 -7 20 22 14 59 11 59
-5z m-7023 -2 c-3 -3 -12 -4 -19 -1 -8 3 -5 6 6 6 11 1 17 -2 13 -5z m135 -6
c-9 -9 -15 -9 -24 0 -9 9 -7 12 12 12 19 0 21 -3 12 -12z m6318 -158 c0 -5 -5
-10 -11 -10 -5 0 -7 5 -4 10 3 6 8 10 11 10 2 0 4 -4 4 -10z m545 -51 c-8 -41
-15 -32 -14 17 0 39 2 44 9 27 5 -12 7 -32 5 -44z m5 -205 c0 -24 -4 -44 -10
-44 -5 0 -10 23 -10 51 0 31 4 48 10 44 6 -3 10 -26 10 -51z m-6550 -54 c12
-8 11 -10 -7 -10 -12 0 -25 5 -28 10 -8 13 15 13 35 0z m5760 -31 c0 -5 -7 -9
-15 -9 -15 0 -20 12 -9 23 8 8 24 -1 24 -14z m-5662 -46 c-2 -12 -14 -19 -36
-21 -34 -3 -35 -2 -26 22 9 23 67 22 62 -1z m5912 -18 c0 -6 -58 -11 -150 -13
-94 -1 -150 1 -150 7 0 10 86 16 227 16 42 0 73 -4 73 -10z m70 6 c0 -14 -18
-23 -30 -16 -6 4 -8 11 -5 16 8 12 35 12 35 0z m-6140 -10 c0 -10 -50 -25 -57
-17 -3 2 -2 9 2 15 8 13 55 15 55 2z m5740 -1 c0 -5 -5 -10 -11 -10 -5 0 -7 5
-4 10 3 6 8 10 11 10 2 0 4 -4 4 -10z m580 -6 c0 -8 -5 -12 -10 -9 -6 4 -8 11
-5 16 9 14 15 11 15 -7z m-6410 -45 c-7 -11 -14 -19 -16 -16 -7 7 7 37 17 37
6 0 5 -9 -1 -21z m6340 -35 c0 -8 -5 -12 -10 -9 -6 4 -8 11 -5 16 9 14 15 11
15 -7z m-6414 -32 c-18 -18 -31 -10 -23 12 4 10 13 13 22 9 15 -5 15 -7 1 -21z
m6375 -169 c-8 -14 -10 -6 -11 34 0 73 14 102 18 36 2 -29 -2 -61 -7 -70z
m-6488 47 c-3 -11 -9 -20 -14 -20 -11 0 -11 3 -3 24 9 23 23 20 17 -4z m6874
-112 c-2 -24 -4 -7 -4 37 0 44 2 63 4 43 2 -21 2 -57 0 -80z m-1047 82 c0 -5
-4 -10 -10 -10 -5 0 -10 5 -10 10 0 6 5 10 10 10 6 0 10 -4 10 -10z m390 0 c0
-5 -4 -10 -10 -10 -5 0 -10 5 -10 10 0 6 5 10 10 10 6 0 10 -4 10 -10z m-6250
-24 c0 -22 -11 -46 -21 -46 -10 0 -12 43 -2 53 11 12 23 8 23 -7z m845 -11
c144 -25 203 -68 236 -173 19 -58 22 -101 28 -330 3 -145 2 -270 -2 -278 -6
-11 -26 -13 -95 -9 -144 8 -181 15 -192 35 -6 11 -10 103 -10 209 l0 191 -29
32 c-27 31 -31 32 -102 31 -81 -2 -118 -20 -130 -65 -11 -41 -9 -358 2 -403
15 -57 70 -111 224 -220 67 -48 215 -169 215 -177 0 -4 7 -14 16 -23 35 -35
61 -83 79 -150 18 -64 20 -102 19 -455 -1 -366 -2 -389 -22 -455 -35 -112 -93
-152 -204 -142 -159 15 -230 36 -420 127 -67 31 -148 105 -148 134 0 8 -9 30
-19 48 -29 48 -43 240 -36 494 3 115 5 212 5 215 0 15 31 16 92 3 36 -7 83
-14 104 -15 78 -4 74 14 74 -304 l0 -285 41 -40 c23 -22 48 -40 56 -40 8 0 27
-7 43 -16 24 -15 32 -15 71 -2 74 24 76 35 74 362 -2 229 -5 288 -18 316 -15
36 -66 86 -169 167 -29 23 -80 64 -113 90 -33 27 -78 62 -100 78 -76 56 -119
108 -159 190 -16 34 -20 68 -24 212 -4 181 10 405 31 486 18 67 73 129 139
155 45 18 75 21 204 21 94 1 185 -5 239 -14z m220 5 c3 -5 2 -10 -4 -10 -5 0
-13 5 -16 10 -3 6 -2 10 4 10 5 0 13 -4 16 -10z m5097 -80 c-2 -36 -10 -83
-17 -105 -8 -22 -16 -58 -20 -80 -3 -22 -12 -71 -20 -110 -20 -96 -45 -226
-61 -310 -7 -38 -18 -92 -24 -120 -54 -234 -61 -309 -36 -368 7 -18 16 -55 20
-82 4 -28 13 -68 20 -90 8 -22 24 -85 36 -140 12 -55 28 -120 35 -145 7 -25
25 -99 40 -165 15 -66 33 -139 41 -163 8 -23 14 -55 14 -70 1 -15 7 -38 15
-52 32 -56 8 -84 -93 -109 -20 -5 -70 -21 -111 -36 -40 -15 -77 -23 -81 -18
-3 4 -16 64 -29 133 -12 69 -26 150 -31 180 -6 30 -15 84 -20 120 -5 36 -16
92 -24 125 -9 32 -16 68 -16 78 0 51 -45 249 -57 254 -21 8 -23 3 -38 -88 -8
-46 -21 -120 -29 -164 -8 -44 -20 -109 -26 -145 -6 -36 -18 -95 -26 -132 -8
-37 -19 -103 -24 -145 -6 -43 -12 -85 -15 -94 -3 -9 -12 -55 -19 -102 -20
-124 -30 -139 -96 -155 -142 -35 -190 -45 -196 -40 -3 4 2 51 10 105 9 54 23
141 31 193 7 52 18 107 23 121 6 14 13 52 17 85 4 32 11 76 17 98 5 21 16 77
23 125 8 47 23 138 35 201 63 336 63 337 31 470 -12 52 -28 127 -36 165 -8 39
-19 88 -25 110 -5 22 -19 83 -30 135 -11 52 -36 168 -55 257 -19 89 -35 169
-35 177 0 9 -7 37 -16 63 -15 43 -15 48 0 58 20 15 276 29 288 17 5 -5 14 -29
20 -53 23 -102 50 -229 62 -294 8 -38 21 -99 29 -135 31 -126 46 -196 52 -247
7 -55 21 -75 35 -52 5 7 16 54 25 104 9 49 24 135 35 190 27 139 57 320 65
383 3 30 13 72 22 93 l15 40 127 -3 126 -3 -3 -65z m331 -2 c-8 -27 -12 -30
-18 -15 -11 25 3 73 17 59 8 -8 8 -21 1 -44z m-4411 -1 c47 -25 76 -54 112
-111 35 -55 45 -174 45 -547 1 -317 -1 -361 -18 -422 -19 -70 -54 -124 -105
-161 -25 -19 -40 -21 -193 -19 -91 0 -190 4 -219 8 -52 6 -54 5 -64 -20 -6
-16 -10 -171 -10 -390 0 -214 -4 -366 -9 -370 -5 -3 -50 4 -100 15 -50 11
-105 20 -123 20 -18 0 -38 4 -45 8 -9 6 -12 244 -12 984 0 1060 -3 1008 54
994 25 -6 73 3 138 27 29 10 91 13 270 11 227 -2 233 -2 279 -27z m637 19 c12
-8 13 -63 8 -351 -6 -287 -5 -344 7 -360 12 -17 30 -21 123 -25 94 -4 110 -3
126 13 15 15 17 46 17 346 0 275 2 331 15 341 11 9 39 9 125 0 60 -6 123 -9
138 -5 58 12 56 53 43 -898 -6 -479 -14 -958 -16 -1064 -4 -165 -3 -194 11
-207 8 -9 17 -16 20 -16 2 0 47 20 100 45 52 25 100 45 107 45 7 0 22 8 35 18
27 21 26 -48 17 1207 -4 490 -3 895 2 902 10 13 261 22 282 9 11 -7 12 -190 7
-1130 l-6 -1121 -32 -27 c-18 -15 -36 -28 -40 -28 -4 0 -29 -15 -55 -32 -128
-87 -493 -266 -703 -344 -117 -44 -273 -94 -385 -124 -60 -16 -120 -32 -131
-36 -29 -8 -35 4 -55 116 -9 52 -22 110 -27 127 -12 38 4 63 42 63 12 0 26 4
31 9 6 4 78 29 160 55 232 73 268 89 282 117 23 47 40 1306 18 1327 -9 9 -249
21 -258 13 -4 -4 -8 -45 -8 -92 0 -46 -5 -100 -10 -119 -9 -38 -16 -917 -6
-926 9 -10 80 -24 122 -24 47 0 70 -12 63 -32 -5 -13 -155 -76 -233 -98 -16
-5 -50 -15 -75 -24 -96 -32 -130 -40 -141 -29 -21 21 -29 199 -28 638 1 253 1
471 1 485 -2 145 0 600 3 694 2 67 7 213 10 326 4 113 11 210 15 215 10 12
259 13 279 1z m1771 -6 c8 -14 57 -199 85 -325 8 -33 20 -85 29 -115 46 -171
141 -542 176 -693 22 -92 33 -117 47 -103 4 3 6 275 4 604 -1 328 2 602 6 608
5 7 38 11 83 10 45 0 87 5 106 13 67 30 64 51 65 -451 2 -858 7 -1393 14
-1444 9 -74 7 -75 -196 -125 -106 -25 -133 -23 -137 11 -1 14 -11 54 -22 90
-34 119 -41 144 -75 275 -19 72 -43 164 -55 205 -11 41 -28 102 -36 135 -9 33
-26 92 -39 130 -13 39 -35 114 -50 168 -35 132 -43 153 -56 140 -7 -7 -13
-224 -17 -629 l-7 -619 -57 -7 c-32 -4 -82 -14 -112 -22 -42 -10 -59 -11 -70
-2 -13 9 -16 151 -22 1075 -6 949 -5 1065 8 1075 10 7 71 11 167 11 122 0 153
-3 161 -15z m-4534 -22 c-3 -13 -6 -59 -6 -103 -1 -61 -3 -76 -11 -62 -6 11
-8 48 -5 90 3 40 5 78 6 85 0 6 5 12 11 12 7 0 9 -9 5 -22z m5234 -29 c0 -20
-15 -26 -25 -9 -9 15 3 43 15 35 5 -3 10 -15 10 -26z m1730 -78 c0 -17 -4 -33
-10 -36 -6 -4 -10 8 -10 29 0 20 5 36 10 36 6 0 10 -13 10 -29z m-460 -48 c0
-16 -5 -35 -10 -43 -7 -11 -10 -4 -10 28 0 23 5 42 10 42 6 0 10 -12 10 -27z
m-41 -190 c0 -31 -2 -34 -9 -18 -12 28 -12 55 0 55 6 0 10 -17 9 -37z m-676
-35 l-11 -43 -1 55 c-1 41 2 51 11 42 8 -8 8 -23 1 -54z m-6133 -70 c0 -20 -4
-39 -9 -43 -12 -7 -26 79 -16 95 12 19 25 -9 25 -52z m7297 40 c-3 -8 -6 -5
-6 6 -1 11 2 17 5 13 3 -3 4 -12 1 -19z m-531 -186 c-14 -13 -18 12 -10 65 l9
58 3 -59 c2 -32 1 -61 -2 -64z m-6456 52 c0 -34 -4 -53 -10 -49 -16 10 -10
105 6 105 2 0 4 -25 4 -56z m6950 -28 c-7 -7 -10 1 -9 25 0 32 1 33 10 10 6
-16 6 -28 -1 -35z m-7230 -52 c0 -8 -4 -12 -10 -9 -5 3 -10 13 -10 21 0 8 5
12 10 9 6 -3 10 -13 10 -21z m5107 -41 c-2 -16 -4 -5 -4 22 0 28 2 40 4 28 2
-13 2 -35 0 -50z m2095 40 c6 -27 -3 -64 -13 -57 -12 7 -12 74 0 74 5 0 11 -8
13 -17z m-6931 -66 c-8 -8 -11 -2 -11 19 0 40 14 54 18 19 2 -15 -1 -32 -7
-38z m-214 -55 c16 -10 28 -62 14 -62 -13 0 -40 62 -47 105 l-4 30 13 -33 c7
-18 18 -36 24 -40z m7113 4 c0 -22 -11 -46 -21 -46 -10 0 -12 43 -2 53 11 12
23 8 23 -7z m-6072 -23 c5 -18 -10 -16 -34 2 -18 15 -18 15 5 13 14 -2 26 -9
29 -15z m-790 -55 l-1 -53 -6 45 c-6 43 -5 60 5 60 2 0 3 -24 2 -52z m-198
-39 c0 -20 -15 -26 -25 -9 -9 15 3 43 15 35 5 -3 10 -15 10 -26z m6558 -100
c2 -72 -1 -108 -8 -104 -17 11 -12 215 5 215 1 0 3 -50 3 -111z m452 101 c0
-5 -5 -10 -11 -10 -5 0 -7 5 -4 10 3 6 8 10 11 10 2 0 4 -4 4 -10z m-6766 -36
c7 -19 -2 -37 -15 -29 -12 8 -12 45 0 45 5 0 12 -7 15 -16z m266 -5 c0 -6 -4
-7 -10 -4 -5 3 -10 11 -10 16 0 6 5 7 10 4 6 -3 10 -11 10 -16z m6480 12 c0
-17 -12 -41 -21 -41 -5 0 -9 11 -9 25 0 16 6 25 15 25 8 0 15 -4 15 -9z
m-6948 -37 c-5 -26 -10 -30 -23 -17 -14 14 -3 46 14 40 6 -2 10 -13 9 -23z
m1178 -14 c0 -5 -7 -10 -15 -10 -8 0 -15 5 -15 10 0 6 7 10 15 10 8 0 15 -4
15 -10z m5717 -32 c-3 -8 -6 -5 -6 6 -1 11 2 17 5 13 3 -3 4 -12 1 -19z
m-6864 -10 c7 -25 3 -33 -12 -23 -13 8 -15 45 -2 45 5 0 11 -10 14 -22z m1192
-8 c10 -11 16 -20 13 -20 -3 0 -13 9 -23 20 -10 11 -16 20 -13 20 3 0 13 -9
23 -20z m-1065 -24 c0 -8 -4 -17 -9 -21 -12 -7 -24 12 -16 25 9 15 25 12 25
-4z m6700 4 c0 -5 -5 -10 -11 -10 -5 0 -7 5 -4 10 3 6 8 10 11 10 2 0 4 -4 4
-10z m-6265 -10 c3 -5 2 -10 -4 -10 -5 0 -13 5 -16 10 -3 6 -2 10 4 10 5 0 13
-4 16 -10z m-525 -26 c0 -8 -4 -12 -10 -9 -5 3 -10 13 -10 21 0 8 5 12 10 9 6
-3 10 -13 10 -21z m6734 -45 c-23 -26 -34 -24 -34 6 0 17 7 28 23 34 29 11 36
-13 11 -40z m-6639 -47 c6 -19 4 -23 -10 -20 -26 5 -59 53 -51 74 6 16 9 15
30 -7 13 -13 27 -35 31 -47z m6382 -19 c-3 -10 -5 -4 -5 12 0 17 2 24 5 18 2
-7 2 -21 0 -30z m213 7 c0 -6 -8 -14 -17 -17 -10 -4 -40 -24 -68 -45 -27 -21
-59 -45 -70 -53 -28 -22 -49 -14 -53 18 -3 25 0 27 30 27 18 0 44 7 58 15 14
8 32 17 42 21 9 3 18 14 21 25 5 20 57 28 57 9z m-5934 -77 c-7 -7 -26 7 -26
19 0 6 6 6 15 -2 9 -7 13 -15 11 -17z m79 -53 c3 -5 1 -10 -4 -10 -6 0 -11 5
-11 10 0 6 2 10 4 10 3 0 8 -4 11 -10z m3829 -74 c7 -28 -2 -58 -15 -50 -12 7
-12 74 0 74 5 0 12 -11 15 -24z m1213 -313 c-3 -10 -5 -4 -5 12 0 17 2 24 5
18 2 -7 2 -21 0 -30z m-5431 -490 c-7 -7 -26 7 -26 19 0 6 6 6 15 -2 9 -7 13
-15 11 -17z m61 -39 c-3 -3 -12 -4 -19 -1 -8 3 -5 6 6 6 11 1 17 -2 13 -5z
m4833 -214 c0 -5 -4 -10 -10 -10 -5 0 -10 5 -10 10 0 6 5 10 10 10 6 0 10 -4
10 -10z m-1342 -187 c-3 -42 -21 -51 -26 -15 -4 29 4 52 18 52 7 0 10 -15 8
-37z m-104 -74 c-10 -16 -24 -9 -24 12 0 18 2 19 15 9 8 -7 12 -16 9 -21z m82
-24 c8 -20 -13 -45 -37 -45 -13 0 -17 5 -12 18 15 41 39 54 49 27z m-76 -63
c0 -16 -25 -32 -49 -32 l-26 0 30 20 c32 21 45 25 45 12z m-330 -42 c0 -5 -4
-10 -10 -10 -5 0 -10 5 -10 10 0 6 5 10 10 10 6 0 10 -4 10 -10z m-90 -35 c7
-9 10 -18 7 -21 -7 -8 -47 14 -47 26 0 15 26 12 40 -5z m290 1 c0 -14 -40 -30
-50 -20 -5 6 29 34 42 34 4 0 8 -6 8 -14z m-89 -56 c-30 -26 -51 -25 -51 0 0
17 7 20 38 20 l37 -1 -24 -19z m-96 -26 c45 9 44 -4 -2 -26 -34 -16 -37 -16
-49 0 -19 25 -19 48 1 32 9 -8 28 -10 50 -6z m339 -82 c3 -5 -1 -44 -9 -88 -7
-43 -15 -114 -17 -156 -3 -56 -10 -83 -22 -97 -31 -34 -318 -172 -606 -291
-79 -33 -338 -116 -385 -124 -57 -10 -72 5 -84 89 -6 39 -15 94 -21 124 -12
68 -2 88 48 96 122 19 571 165 660 215 9 5 53 27 97 48 107 52 266 146 289
171 20 22 41 27 50 13z m-944 -12 c0 -5 -9 -10 -20 -10 -11 0 -20 5 -20 10 0
6 9 10 20 10 11 0 20 -4 20 -10z m80 -31 c0 -5 -7 -9 -15 -9 -9 0 -15 9 -15
21 0 18 2 19 15 9 8 -7 15 -16 15 -21z m-300 -45 c0 -2 -9 -4 -20 -4 -11 0
-20 4 -20 9 0 5 9 7 20 4 11 -3 20 -7 20 -9z m350 -14 c13 -9 13 -11 0 -20
-18 -12 -21 -12 -39 -1 -15 10 -7 31 12 31 7 0 19 -5 27 -10z m-86 -39 c7 -11
-22 -23 -35 -15 -5 3 -7 10 -4 15 8 12 32 12 39 0z m-196 -35 c26 4 42 3 42
-4 0 -15 -22 -21 -54 -15 -20 4 -31 1 -38 -11 -15 -27 -33 -18 -32 17 2 52 4
53 22 29 15 -20 23 -22 60 -16z m582 -706 c0 -5 -13 -10 -29 -10 -17 0 -33 5
-36 10 -4 6 8 10 29 10 20 0 36 -4 36 -10z m650 -69 c5 -11 10 -50 10 -88 0
-82 -22 -135 -74 -181 -67 -58 -111 -75 -298 -112 -67 -13 -437 -40 -479 -35
-19 2 -86 9 -149 15 -88 8 -146 21 -245 53 -122 39 -133 45 -186 97 -60 59
-79 100 -79 176 0 25 7 51 18 64 l18 22 42 -21 c24 -12 80 -36 125 -52 422
-158 633 -171 957 -63 89 30 274 117 284 133 11 18 44 13 56 -8z"/>
<path d="M10465 12988 c-38 -20 -112 -110 -124 -149 -8 -26 -25 -49 -49 -67
-76 -55 -112 -87 -112 -99 0 -19 35 -16 77 7 56 30 74 25 106 -25 35 -56 147
-175 164 -175 21 0 16 14 -40 98 -29 44 -62 108 -72 141 -17 57 -17 63 -1 114
9 30 31 73 47 96 35 46 37 77 4 59z"/>
<path d="M10730 12984 c0 -9 13 -33 28 -53 34 -44 58 -94 67 -141 7 -41 -24
-117 -92 -222 -44 -69 -51 -88 -32 -88 18 0 135 124 164 174 15 26 34 46 43
46 10 0 40 -12 67 -25 56 -28 75 -31 75 -12 0 14 -60 77 -73 77 -23 0 -70 51
-96 105 -18 36 -52 82 -80 109 -53 49 -71 56 -71 30z"/>
<path d="M10625 12933 c4 -10 13 -40 19 -67 13 -51 32 -69 47 -45 27 42 -5
129 -47 129 -21 0 -25 -3 -19 -17z"/>
<path d="M9910 12550 c0 -33 43 -112 111 -206 81 -110 226 -211 349 -243 113
-30 139 -33 244 -29 91 4 128 10 206 37 96 33 219 94 268 134 37 30 143 143
156 167 6 10 23 40 39 66 29 49 36 104 14 104 -7 0 -21 -15 -29 -32 -50 -101
-177 -215 -306 -275 -266 -124 -487 -129 -717 -17 -84 40 -193 141 -257 234
-31 47 -62 86 -68 88 -5 2 -10 -11 -10 -28z"/>
<path d="M10909 12561 c-50 -10 -95 -50 -151 -135 -102 -152 -144 -175 -210
-113 -33 30 -49 53 -82 122 -8 17 -32 51 -54 75 l-40 45 -85 0 c-130 0 -133
-27 -5 -40 77 -8 87 -17 148 -129 46 -85 78 -125 121 -147 52 -26 79 -24 126
9 50 33 80 69 129 152 56 96 93 120 188 124 41 1 43 21 5 35 -35 12 -37 12
-90 2z"/>
<path d="M10415 8393 c-261 -26 -484 -132 -669 -316 -158 -158 -248 -324 -296
-547 -36 -168 -21 -418 34 -560 69 -177 117 -255 255 -412 52 -59 207 -171
286 -207 39 -17 79 -37 90 -43 10 -6 60 -22 110 -35 118 -32 383 -43 485 -20
188 43 261 73 396 163 208 138 367 348 438 577 37 119 49 197 49 327 -1 447
-267 832 -698 1008 -116 48 -347 79 -480 65z m-537 -315 c-128 -157 -176 -251
-207 -406 -25 -120 -7 -342 34 -437 65 -149 107 -216 193 -310 120 -130 280
-212 501 -256 170 -33 409 25 594 144 104 67 237 223 295 347 56 121 66 175
67 355 0 181 -8 227 -61 340 -36 76 -54 103 -121 184 -34 42 -60 77 -58 80 9
9 120 -86 164 -141 65 -80 138 -205 168 -285 23 -62 31 -89 65 -218 15 -61 3
-316 -20 -400 -66 -245 -180 -418 -367 -559 -183 -139 -384 -206 -615 -206
-63 0 -135 5 -160 11 -25 6 -65 14 -90 19 -80 15 -202 66 -273 114 -21 14 -40
26 -43 26 -12 0 -153 121 -178 152 -14 18 -33 40 -42 49 -23 25 -104 151 -104
162 0 6 -6 18 -13 26 -15 18 -47 100 -71 183 -42 142 -38 411 8 548 43 128 73
196 116 260 9 14 30 45 46 70 16 24 62 77 103 117 83 81 125 100 69 31z"/>
<path d="M9032 5781 c-5 -3 -15 -169 -21 -368 -11 -301 -10 -367 1 -390 13
-27 15 -28 106 -31 l93 -3 35 35 34 34 3 209 c4 380 3 417 -19 454 -11 19 -31
39 -45 45 -27 13 -173 24 -187 15z"/>
</g>
</svg>
